<svg width="350" height="30" fill="none" xmlns="http://www.w3.org/2000/svg"><path d="M68.618 6.78c1.927 0 3.49.596 4.69 1.79 1.239 1.194 1.858 2.857 1.858 4.99v9.658h-4.159v-8.895c0-1.193-.294-2.113-.884-2.759-.57-.646-1.347-.969-2.33-.969-1.062 0-1.918.353-2.566 1.057-.65.685-.974 1.615-.974 2.789v8.777h-4.158v-8.865c0-1.174-.295-2.094-.885-2.76-.57-.665-1.357-.998-2.36-.998-1.022 0-1.868.353-2.536 1.057-.649.705-.974 1.644-.974 2.818v8.748h-4.158V7.22h4.07v2.29c.452-.842 1.12-1.508 2.006-1.997a5.485 5.485 0 0 1 2.89-.734c1.022 0 1.956.245 2.802.734a4.49 4.49 0 0 1 1.917 2.084c.59-.88 1.396-1.565 2.419-2.055a7.376 7.376 0 0 1 3.332-.763zM90.973 9.128V7.22h3.953v15.998h-3.953v-1.85c-1.376 1.488-3.087 2.232-5.132 2.232-2.32 0-4.227-.803-5.721-2.407-1.495-1.605-2.242-3.62-2.242-6.048 0-2.407.757-4.393 2.271-5.959 1.514-1.585 3.412-2.377 5.692-2.377 2.006 0 3.717.773 5.132 2.319zm.06 6.076c0-1.252-.433-2.338-1.298-3.258-.846-.9-1.917-1.35-3.215-1.35-1.318 0-2.399.45-3.245 1.35-.825.9-1.238 1.986-1.238 3.258 0 1.292.422 2.388 1.268 3.288.845.9 1.917 1.35 3.215 1.35 1.298 0 2.37-.45 3.215-1.35.865-.92 1.297-2.016 1.297-3.288zM102.824 23.218h-4.16V7.22h4.071v2.23c.433-.802 1.101-1.448 2.006-1.937.904-.49 1.917-.734 3.038-.734 1.749 0 3.234.578 4.453 1.732 1.219 1.155 1.829 2.799 1.829 4.932v9.775h-4.159v-8.66c0-1.252-.305-2.22-.914-2.906-.61-.704-1.436-1.057-2.478-1.057-1.101 0-1.995.382-2.684 1.145-.668.744-1.002 1.713-1.002 2.906v8.572zM129.916 8.98V7.22h3.834v14.413c0 2.583-.826 4.618-2.477 6.106-1.672 1.507-3.815 2.26-6.43 2.26-2.772 0-5.23-.773-7.373-2.319l1.622-3.112c1.848 1.253 3.726 1.88 5.633 1.88 1.553 0 2.773-.412 3.657-1.234.905-.822 1.357-1.888 1.357-3.2v-.821c-1.239 1.37-2.89 2.054-4.955 2.054-2.359 0-4.286-.773-5.781-2.319-1.494-1.546-2.241-3.503-2.241-5.87 0-2.369.786-4.335 2.359-5.901 1.573-1.566 3.52-2.348 5.84-2.348 1.966 0 3.618.724 4.955 2.172zm-8.966 6.107c0 1.33.423 2.417 1.268 3.258.865.861 1.927 1.292 3.185 1.292 1.259 0 2.321-.43 3.186-1.292.845-.86 1.268-1.947 1.268-3.258 0-1.292-.423-2.358-1.268-3.2-.865-.861-1.927-1.292-3.186-1.292-1.258 0-2.32.43-3.185 1.292-.845.841-1.268 1.908-1.268 3.2zM136.664 15.204c0-2.368.807-4.354 2.419-5.959 1.632-1.644 3.696-2.466 6.194-2.466 2.497 0 4.561.822 6.193 2.466 1.613 1.605 2.419 3.591 2.419 5.96 0 2.387-.806 4.383-2.419 5.988-1.632 1.624-3.696 2.436-6.193 2.436-2.498 0-4.562-.812-6.194-2.436-1.612-1.605-2.419-3.601-2.419-5.989zm5.427 3.259c.846.88 1.908 1.32 3.186 1.32 1.238 0 2.29-.44 3.155-1.32.866-.92 1.298-2.006 1.298-3.259 0-1.252-.432-2.329-1.298-3.229-.865-.88-1.917-1.32-3.155-1.32-1.278 0-2.34.44-3.186 1.32-.845.861-1.268 1.938-1.268 3.23 0 1.271.423 2.357 1.268 3.258zM174.227 19.02l1.239 3.259c-1.337.88-2.92 1.32-4.749 1.32-1.848 0-3.244-.528-4.188-1.584-.943-1.077-1.415-2.652-1.415-4.727v-6.604h-2.625V7.22h2.654V1.554h4.129V7.22h5.309v3.464h-5.309v6.34c0 1.879.757 2.818 2.271 2.818.826 0 1.721-.274 2.684-.822zM192.812 14.852c0 .49-.049 1.096-.147 1.82h-12.063c.589 2.27 2.153 3.405 4.689 3.405 1.868 0 3.598-.538 5.191-1.614l1.652 2.906c-2.045 1.468-4.385 2.201-7.02 2.201-2.812 0-4.974-.812-6.488-2.436-1.495-1.605-2.242-3.582-2.242-5.93 0-2.446.777-4.452 2.33-6.018 1.553-1.585 3.569-2.377 6.046-2.377 2.34 0 4.267.724 5.781 2.172 1.514 1.448 2.271 3.405 2.271 5.87zm-8.052-4.609c-1.042 0-1.937.303-2.684.91-.727.587-1.219 1.4-1.474 2.437h8.169c-.196-1.038-.648-1.85-1.356-2.437-.708-.607-1.593-.91-2.655-.91zM203.341 23.57c-2.478 0-4.523-.782-6.135-2.348-1.593-1.546-2.389-3.552-2.389-6.018 0-2.466.806-4.472 2.419-6.018 1.632-1.585 3.706-2.377 6.223-2.377 1.651 0 3.146.391 4.483 1.174a7.18 7.18 0 0 1 3.008 3.288l-3.333 1.82c-.983-1.625-2.349-2.437-4.099-2.437-1.337 0-2.429.44-3.274 1.321-.865.861-1.298 1.938-1.298 3.23 0 1.33.423 2.426 1.268 3.287.866.861 1.937 1.291 3.215 1.291.846 0 1.652-.225 2.419-.675.767-.45 1.327-1.027 1.681-1.732l3.362 1.967c-.688 1.292-1.71 2.32-3.067 3.082-1.337.764-2.832 1.145-4.483 1.145zM217.602 23.218h-4.158V.908h4.04v8.396c.433-.744 1.111-1.35 2.035-1.82.924-.47 1.937-.705 3.038-.705 1.731 0 3.205.578 4.424 1.732 1.219 1.155 1.829 2.799 1.829 4.932v9.775h-4.159v-8.66c0-1.252-.305-2.22-.914-2.906-.59-.704-1.406-1.057-2.448-1.057-1.101 0-1.996.382-2.684 1.145-.669.744-1.003 1.713-1.003 2.906v8.572zM237.735 23.63c-2.792 0-5.004-1.028-6.636-3.083l2.212-2.613a6.594 6.594 0 0 0 2.035 1.644c.806.392 1.612.587 2.418.587.63 0 1.151-.147 1.564-.44.432-.294.648-.666.648-1.116 0-.567-.383-1.027-1.15-1.38a90.865 90.865 0 0 0-1.917-.733c-.924-.333-1.612-.617-2.065-.851-1.848-.881-2.772-2.26-2.772-4.14 0-1.39.551-2.544 1.652-3.464 1.081-.9 2.536-1.35 4.365-1.35 2.281 0 4.158.763 5.633 2.29l-2.064 2.671c-1.121-1.057-2.35-1.585-3.687-1.585-.531 0-.974.137-1.327.411-.335.254-.502.568-.502.94 0 .665.472 1.154 1.416 1.467 2.104.783 3.392 1.302 3.864 1.556 1.809.94 2.713 2.29 2.713 4.05 0 1.508-.59 2.74-1.77 3.7-1.14.959-2.684 1.438-4.63 1.438zM259.563 21.721c-1.298 1.253-3.097 1.879-5.397 1.879-2.301 0-4.11-.627-5.427-1.879-1.298-1.272-1.947-3.024-1.947-5.255V7.22h4.159v9.246c0 1.018.285 1.83.855 2.437.57.607 1.357.91 2.36.91s1.789-.303 2.359-.91c.57-.607.856-1.419.856-2.437V7.22h4.158v9.246c0 2.251-.658 4.002-1.976 5.255zM269.274 23.218h-4.158V7.22h3.981v2.142c.964-1.722 2.438-2.583 4.424-2.583.649 0 1.298.118 1.947.352l-.354 3.963c-.708-.215-1.347-.322-1.917-.322-1.219 0-2.183.41-2.89 1.232-.689.803-1.033 2.006-1.033 3.611v7.603zM289.222 9.128V7.22h3.952v15.998h-3.952v-1.85c-1.376 1.488-3.087 2.232-5.132 2.232-2.32 0-4.227-.803-5.722-2.407-1.494-1.605-2.241-3.62-2.241-6.048 0-2.407.757-4.393 2.271-5.959 1.514-1.585 3.411-2.377 5.692-2.377 2.006 0 3.717.773 5.132 2.319zm.059 6.076c0-1.252-.432-2.338-1.297-3.258-.846-.9-1.918-1.35-3.215-1.35-1.318 0-2.399.45-3.245 1.35-.825.9-1.238 1.986-1.238 3.258 0 1.292.422 2.388 1.268 3.288.845.9 1.917 1.35 3.215 1.35 1.297 0 2.369-.45 3.215-1.35.865-.92 1.297-2.016 1.297-3.288zM301.072 23.218h-4.158V7.22h4.07v2.23c.432-.802 1.101-1.448 2.006-1.937.904-.49 1.917-.734 3.037-.734 1.75 0 3.235.578 4.454 1.732 1.219 1.155 1.829 2.799 1.829 4.932v9.775h-4.159v-8.66c0-1.252-.305-2.22-.914-2.906-.61-.704-1.436-1.057-2.478-1.057-1.101 0-1.996.382-2.684 1.145-.668.744-1.003 1.713-1.003 2.906v8.572zM323.534 23.57c-2.477 0-4.522-.782-6.134-2.348-1.593-1.546-2.389-3.552-2.389-6.018 0-2.466.806-4.472 2.418-6.018 1.632-1.585 3.707-2.377 6.223-2.377 1.652 0 3.146.391 4.483 1.174a7.183 7.183 0 0 1 3.009 3.288l-3.333 1.82c-.983-1.625-2.35-2.437-4.1-2.437-1.337 0-2.428.44-3.274 1.321-.865.861-1.297 1.938-1.297 3.23 0 1.33.422 2.426 1.268 3.287.865.861 1.937 1.291 3.215 1.291.845 0 1.652-.225 2.418-.675.767-.45 1.328-1.027 1.682-1.732l3.362 1.967c-.688 1.292-1.711 2.32-3.068 3.082-1.337.764-2.831 1.145-4.483 1.145zM349.182 14.852c0 .49-.049 1.096-.148 1.82h-12.063c.59 2.27 2.153 3.405 4.69 3.405 1.868 0 3.598-.538 5.191-1.614l1.652 2.906c-2.045 1.468-4.385 2.201-7.02 2.201-2.812 0-4.975-.812-6.489-2.436-1.494-1.605-2.241-3.582-2.241-5.93 0-2.446.776-4.452 2.33-6.018 1.553-1.585 3.569-2.377 6.046-2.377 2.34 0 4.267.724 5.781 2.172 1.514 1.448 2.271 3.405 2.271 5.87zm-8.052-4.609c-1.042 0-1.937.303-2.684.91-.727.587-1.219 1.4-1.475 2.437h8.17c-.196-1.038-.649-1.85-1.357-2.437-.707-.607-1.592-.91-2.654-.91z" fill="#1A1A1A"/><g filter="url(#filter0_i)"><path d="M14.403 1.111c-4.041 1.33-6.882 6.838-7.798 9.425-.966 2.167-2.965 4.007-3.844 4.657C.42 16.923.016 18.297.016 19.185c-.264 2.306 2.892 4.878 4.503 5.876 5.974 3.37 13.399 1.552 15.596.444 7.248-3.105 9.591-7.688 10.434-10.312 2.108-5.411-.88-10.423-2.636-12.197-4.833-4.435-11.057-2.92-13.51-1.885z" fill="url(#paint0_linear)"/></g><g filter="url(#filter1_i)"><path d="M31.352 4.748c.22 2.402 2.087 6.608 7.798 4.213-.256-2.365-2.174-6.52-7.798-4.213z" fill="url(#paint1_linear)"/></g><defs><filter id="filter0_i" x="0" y="0" width="31.274" height="31" filterUnits="userSpaceOnUse" color-interpolation-filters="sRGB"><feFlood flood-opacity="0" result="BackgroundImageFix"/><feBlend in="SourceGraphic" in2="BackgroundImageFix" result="shape"/><feColorMatrix in="SourceAlpha" values="0 0 0 0 0 0 0 0 0 0 0 0 0 0 0 0 0 0 127 0" result="hardAlpha"/><feOffset dy="4"/><feGaussianBlur stdDeviation="10"/><feComposite in2="hardAlpha" operator="arithmetic" k2="-1" k3="1"/><feColorMatrix values="0 0 0 0 1 0 0 0 0 1 0 0 0 0 1 0 0 0 0.5 0"/><feBlend in2="shape" result="effect1_innerShadow"/></filter><filter id="filter1_i" x="31.352" y="4.073" width="7.798" height="9.602" filterUnits="userSpaceOnUse" color-interpolation-filters="sRGB"><feFlood flood-opacity="0" result="BackgroundImageFix"/><feBlend in="SourceGraphic" in2="BackgroundImageFix" result="shape"/><feColorMatrix in="SourceAlpha" values="0 0 0 0 0 0 0 0 0 0 0 0 0 0 0 0 0 0 127 0" result="hardAlpha"/><feOffset dy="4"/><feGaussianBlur stdDeviation="10"/><feComposite in2="hardAlpha" operator="arithmetic" k2="-1" k3="1"/><feColorMatrix values="0 0 0 0 1 0 0 0 0 1 0 0 0 0 1 0 0 0 0.45 0"/><feBlend in2="shape" result="effect1_innerShadow"/></filter><linearGradient id="paint0_linear" x1="4.933" y1="0" x2="29.289" y2="26.803" gradientUnits="userSpaceOnUse"><stop stop-color="#FCBF13"/><stop offset=".604" stop-color="#FF8D01"/><stop offset="1" stop-color="#FF522D"/></linearGradient><linearGradient id="paint1_linear" x1="32.168" y1="4.002" x2="35.316" y2="12.396" gradientUnits="userSpaceOnUse"><stop stop-color="#5DC454"/><stop offset="1" stop-color="#298469"/></linearGradient></defs></svg>