<svg width="96" height="66" fill="none" xmlns="http://www.w3.org/2000/svg"><g filter="url(#filter0_i)"><path d="M35.243 2.962C25.402 6.202 18.484 19.61 16.256 25.91c-2.354 5.277-7.221 9.759-9.36 11.34C1.192 41.465.208 44.81.208 46.97c-.641 5.615 7.043 11.88 10.965 14.309 14.549 8.208 32.627 3.78 37.976 1.08 17.65-7.56 23.356-18.72 25.406-25.109 5.135-13.175-2.14-25.379-6.418-29.699-11.767-10.8-26.922-7.11-32.895-4.59z" fill="url(#paint0_linear)"/></g><g filter="url(#filter1_i)"><path d="M76.514 11.815c.535 5.85 5.08 16.091 18.987 10.26-.624-5.76-5.295-15.876-18.987-10.26z" fill="url(#paint1_linear)"/></g><defs><filter id="filter0_i" x=".172" y=".256" width="76.151" height="69.744" filterUnits="userSpaceOnUse" color-interpolation-filters="sRGB"><feFlood flood-opacity="0" result="BackgroundImageFix"/><feBlend in="SourceGraphic" in2="BackgroundImageFix" result="shape"/><feColorMatrix in="SourceAlpha" values="0 0 0 0 0 0 0 0 0 0 0 0 0 0 0 0 0 0 127 0" result="hardAlpha"/><feOffset dy="4"/><feGaussianBlur stdDeviation="10"/><feComposite in2="hardAlpha" operator="arithmetic" k2="-1" k3="1"/><feColorMatrix values="0 0 0 0 1 0 0 0 0 1 0 0 0 0 1 0 0 0 0.5 0"/><feBlend in2="shape" result="effect1_innerShadow"/></filter><filter id="filter1_i" x="76.514" y="10.171" width="18.988" height="17.64" filterUnits="userSpaceOnUse" color-interpolation-filters="sRGB"><feFlood flood-opacity="0" result="BackgroundImageFix"/><feBlend in="SourceGraphic" in2="BackgroundImageFix" result="shape"/><feColorMatrix in="SourceAlpha" values="0 0 0 0 0 0 0 0 0 0 0 0 0 0 0 0 0 0 127 0" result="hardAlpha"/><feOffset dy="4"/><feGaussianBlur stdDeviation="10"/><feComposite in2="hardAlpha" operator="arithmetic" k2="-1" k3="1"/><feColorMatrix values="0 0 0 0 1 0 0 0 0 1 0 0 0 0 1 0 0 0 0.45 0"/><feBlend in2="shape" result="effect1_innerShadow"/></filter><linearGradient id="paint0_linear" x1="12.184" y1=".256" x2="71.489" y2="65.521" gradientUnits="userSpaceOnUse"><stop stop-color="#FCBF13"/><stop offset=".604" stop-color="#FF8D01"/><stop offset="1" stop-color="#FF522D"/></linearGradient><linearGradient id="paint1_linear" x1="78.5" y1="10" x2="86.165" y2="30.438" gradientUnits="userSpaceOnUse"><stop stop-color="#5DC454"/><stop offset="1" stop-color="#298469"/></linearGradient></defs></svg>